<?xml version="1.0" encoding="UTF-8"?>
<svg width="128" height="128" viewBox="0 0 128 128" fill="none" xmlns="http://www.w3.org/2000/svg">
  <!-- Background circle with Romanian blue -->
  <circle cx="64" cy="64" r="64" fill="#002b7f"/>
  
  <!-- Outer ring with Romanian yellow -->
  <circle cx="64" cy="64" r="58" fill="none" stroke="#fcd116" stroke-width="3"/>
  
  <!-- Inner decorative ring -->
  <circle cx="64" cy="64" r="52" fill="none" stroke="#fcd116" stroke-width="1" opacity="0.5"/>
  
  <!-- ID Card representation -->
  <rect x="24" y="40" width="80" height="48" rx="6" fill="white" stroke="#fcd116" stroke-width="2"/>
  
  <!-- Card shadow/depth -->
  <rect x="26" y="42" width="80" height="48" rx="6" fill="none" stroke="#002b7f" stroke-width="0.5" opacity="0.2"/>
  
  <!-- Romanian flag stripes on card -->
  <rect x="30" y="46" width="8" height="36" fill="#002b7f"/>
  <rect x="38" y="46" width="8" height="36" fill="#fcd116"/>
  <rect x="46" y="46" width="8" height="36" fill="#ce1126"/>
  
  <!-- Photo placeholder -->
  <rect x="56" y="46" width="18" height="24" rx="3" fill="#f3f4f6" stroke="#d1d5db" stroke-width="1"/>
  <circle cx="65" cy="54" r="4" fill="#9ca3af"/>
  <path d="M59 66 Q65 60 71 66" stroke="#9ca3af" stroke-width="2" fill="none"/>
  
  <!-- Text lines representing ID info -->
  <rect x="76" y="48" width="22" height="3" rx="1.5" fill="#002b7f" opacity="0.8"/>
  <rect x="76" y="54" width="18" height="2" rx="1" fill="#002b7f" opacity="0.6"/>
  <rect x="76" y="58" width="16" height="2" rx="1" fill="#002b7f" opacity="0.6"/>
  <rect x="76" y="62" width="20" height="2" rx="1" fill="#002b7f" opacity="0.6"/>
  <rect x="76" y="66" width="14" height="2" rx="1" fill="#002b7f" opacity="0.6"/>
  
  <!-- Bottom section info -->
  <rect x="30" y="74" width="24" height="2" rx="1" fill="#002b7f" opacity="0.5"/>
  <rect x="30" y="78" width="20" height="2" rx="1" fill="#002b7f" opacity="0.5"/>
  <rect x="56" y="74" width="22" height="2" rx="1" fill="#002b7f" opacity="0.5"/>
  <rect x="56" y="78" width="18" height="2" rx="1" fill="#002b7f" opacity="0.5"/>
  <rect x="80" y="74" width="16" height="2" rx="1" fill="#002b7f" opacity="0.5"/>
  <rect x="80" y="78" width="14" height="2" rx="1" fill="#002b7f" opacity="0.5"/>
  
  <!-- Processing/scan indicator -->
  <circle cx="92" cy="52" r="6" fill="#fcd116"/>
  <path d="M88 52 L91 55 L96 48" stroke="#002b7f" stroke-width="2.5" fill="none" stroke-linecap="round" stroke-linejoin="round"/>
  
  <!-- Digital elements and decorations -->
  <rect x="28" y="34" width="3" height="3" fill="#fcd116" opacity="0.8"/>
  <rect x="34" y="34" width="3" height="3" fill="#fcd116" opacity="0.6"/>
  <rect x="40" y="34" width="3" height="3" fill="#fcd116" opacity="0.4"/>
  
  <rect x="85" y="92" width="3" height="3" fill="#fcd116" opacity="0.8"/>
  <rect x="91" y="92" width="3" height="3" fill="#fcd116" opacity="0.6"/>
  <rect x="97" y="92" width="3" height="3" fill="#fcd116" opacity="0.4"/>
  
  <!-- Corner decorative elements -->
  <path d="M20 20 L28 20 L20 28 Z" fill="#fcd116" opacity="0.3"/>
  <path d="M108 20 L100 20 L108 28 Z" fill="#fcd116" opacity="0.3"/>
  <path d="M20 108 L28 108 L20 100 Z" fill="#fcd116" opacity="0.3"/>
  <path d="M108 108 L100 108 L108 100 Z" fill="#fcd116" opacity="0.3"/>
  
  <!-- Security chip representation -->
  <rect x="86" y="82" width="12" height="8" rx="2" fill="#fcd116" stroke="#002b7f" stroke-width="1"/>
  <rect x="88" y="84" width="2" height="4" fill="#002b7f"/>
  <rect x="91" y="84" width="2" height="4" fill="#002b7f"/>
  <rect x="94" y="84" width="2" height="4" fill="#002b7f"/>
</svg>