<?xml version="1.0" encoding="UTF-8"?>
<svg width="96" height="96" viewBox="0 0 96 96" fill="none" xmlns="http://www.w3.org/2000/svg">
  <!-- Background circle with Romanian blue -->
  <circle cx="48" cy="48" r="48" fill="#002b7f"/>
  
  <!-- Outer ring with Romanian yellow -->
  <circle cx="48" cy="48" r="44" fill="none" stroke="#fcd116" stroke-width="2"/>
  
  <!-- ID Card representation -->
  <rect x="20" y="32" width="56" height="32" rx="4" fill="white" stroke="#fcd116" stroke-width="1.5"/>
  
  <!-- Romanian flag stripes on card -->
  <rect x="24" y="36" width="6" height="24" fill="#002b7f"/>
  <rect x="30" y="36" width="6" height="24" fill="#fcd116"/>
  <rect x="36" y="36" width="6" height="24" fill="#ce1126"/>
  
  <!-- Photo placeholder -->
  <rect x="44" y="36" width="12" height="16" rx="2" fill="#f3f4f6" stroke="#d1d5db"/>
  <circle cx="50" cy="42" r="3" fill="#9ca3af"/>
  <path d="M46 50 Q50 46 54 50" stroke="#9ca3af" stroke-width="1.5" fill="none"/>
  
  <!-- Text lines representing ID info -->
  <rect x="58" y="38" width="14" height="2" rx="1" fill="#002b7f" opacity="0.8"/>
  <rect x="58" y="42" width="12" height="1.5" rx="0.75" fill="#002b7f" opacity="0.6"/>
  <rect x="58" y="45" width="10" height="1.5" rx="0.75" fill="#002b7f" opacity="0.6"/>
  <rect x="58" y="48" width="13" height="1.5" rx="0.75" fill="#002b7f" opacity="0.6"/>
  
  <!-- Bottom section info -->
  <rect x="24" y="54" width="18" height="1.5" rx="0.75" fill="#002b7f" opacity="0.5"/>
  <rect x="24" y="57" width="15" height="1.5" rx="0.75" fill="#002b7f" opacity="0.5"/>
  <rect x="44" y="54" width="16" height="1.5" rx="0.75" fill="#002b7f" opacity="0.5"/>
  <rect x="44" y="57" width="12" height="1.5" rx="0.75" fill="#002b7f" opacity="0.5"/>
  
  <!-- Processing/scan indicator -->
  <circle cx="68" cy="40" r="4" fill="#fcd116"/>
  <path d="M65 40 L67.5 42.5 L71 38" stroke="#002b7f" stroke-width="2" fill="none" stroke-linecap="round" stroke-linejoin="round"/>
  
  <!-- Digital elements -->
  <rect x="22" y="28" width="2" height="2" fill="#fcd116" opacity="0.8"/>
  <rect x="26" y="28" width="2" height="2" fill="#fcd116" opacity="0.6"/>
  <rect x="30" y="28" width="2" height="2" fill="#fcd116" opacity="0.4"/>
  
  <rect x="64" y="66" width="2" height="2" fill="#fcd116" opacity="0.8"/>
  <rect x="68" y="66" width="2" height="2" fill="#fcd116" opacity="0.6"/>
  <rect x="72" y="66" width="2" height="2" fill="#fcd116" opacity="0.4"/>
</svg>