<?xml version="1.0" encoding="UTF-8"?>
<svg width="144" height="144" viewBox="0 0 144 144" fill="none" xmlns="http://www.w3.org/2000/svg">
  <!-- Background circle with Romanian blue -->
  <circle cx="72" cy="72" r="72" fill="#002b7f"/>
  
  <!-- Outer ring with Romanian yellow -->
  <circle cx="72" cy="72" r="66" fill="none" stroke="#fcd116" stroke-width="4"/>
  
  <!-- Inner decorative rings -->
  <circle cx="72" cy="72" r="58" fill="none" stroke="#fcd116" stroke-width="1" opacity="0.6"/>
  <circle cx="72" cy="72" r="54" fill="none" stroke="#fcd116" stroke-width="0.5" opacity="0.4"/>
  
  <!-- ID Card representation -->
  <rect x="26" y="44" width="92" height="56" rx="8" fill="white" stroke="#fcd116" stroke-width="2.5"/>
  
  <!-- Card shadow/depth -->
  <rect x="28" y="46" width="92" height="56" rx="8" fill="none" stroke="#002b7f" stroke-width="0.5" opacity="0.3"/>
  
  <!-- Romanian flag stripes on card -->
  <rect x="32" y="50" width="10" height="44" fill="#002b7f"/>
  <rect x="42" y="50" width="10" height="44" fill="#fcd116"/>
  <rect x="52" y="50" width="10" height="44" fill="#ce1126"/>
  
  <!-- Photo placeholder -->
  <rect x="64" y="50" width="22" height="28" rx="4" fill="#f3f4f6" stroke="#d1d5db" stroke-width="1.5"/>
  <circle cx="75" cy="60" r="5" fill="#9ca3af"/>
  <path d="M67 74 Q75 66 83 74" stroke="#9ca3af" stroke-width="2.5" fill="none"/>
  
  <!-- Text lines representing ID info -->
  <rect x="88" y="52" width="26" height="4" rx="2" fill="#002b7f" opacity="0.8"/>
  <rect x="88" y="58" width="22" height="2.5" rx="1.25" fill="#002b7f" opacity="0.6"/>
  <rect x="88" y="62" width="20" height="2.5" rx="1.25" fill="#002b7f" opacity="0.6"/>
  <rect x="88" y="66" width="24" height="2.5" rx="1.25" fill="#002b7f" opacity="0.6"/>
  <rect x="88" y="70" width="18" height="2.5" rx="1.25" fill="#002b7f" opacity="0.6"/>
  <rect x="88" y="74" width="16" height="2.5" rx="1.25" fill="#002b7f" opacity="0.6"/>
  
  <!-- Bottom section info -->
  <rect x="32" y="82" width="28" height="2.5" rx="1.25" fill="#002b7f" opacity="0.5"/>
  <rect x="32" y="86" width="24" height="2.5" rx="1.25" fill="#002b7f" opacity="0.5"/>
  <rect x="32" y="90" width="20" height="2.5" rx="1.25" fill="#002b7f" opacity="0.5"/>
  
  <rect x="64" y="82" width="26" height="2.5" rx="1.25" fill="#002b7f" opacity="0.5"/>
  <rect x="64" y="86" width="22" height="2.5" rx="1.25" fill="#002b7f" opacity="0.5"/>
  <rect x="64" y="90" width="18" height="2.5" rx="1.25" fill="#002b7f" opacity="0.5"/>
  
  <rect x="92" y="82" width="20" height="2.5" rx="1.25" fill="#002b7f" opacity="0.5"/>
  <rect x="92" y="86" width="18" height="2.5" rx="1.25" fill="#002b7f" opacity="0.5"/>
  <rect x="92" y="90" width="16" height="2.5" rx="1.25" fill="#002b7f" opacity="0.5"/>
  
  <!-- Processing/scan indicator -->
  <circle cx="106" cy="58" r="7" fill="#fcd116"/>
  <path d="M101 58 L104.5 61.5 L111 54" stroke="#002b7f" stroke-width="3" fill="none" stroke-linecap="round" stroke-linejoin="round"/>
  
  <!-- Digital elements and decorations -->
  <rect x="30" y="36" width="4" height="4" fill="#fcd116" opacity="0.8"/>
  <rect x="38" y="36" width="4" height="4" fill="#fcd116" opacity="0.6"/>
  <rect x="46" y="36" width="4" height="4" fill="#fcd116" opacity="0.4"/>
  <rect x="54" y="36" width="4" height="4" fill="#fcd116" opacity="0.2"/>
  
  <rect x="86" y="106" width="4" height="4" fill="#fcd116" opacity="0.8"/>
  <rect x="94" y="106" width="4" height="4" fill="#fcd116" opacity="0.6"/>
  <rect x="102" y="106" width="4" height="4" fill="#fcd116" opacity="0.4"/>
  <rect x="110" y="106" width="4" height="4" fill="#fcd116" opacity="0.2"/>
  
  <!-- Corner decorative elements -->
  <path d="M20 20 L32 20 L20 32 Z" fill="#fcd116" opacity="0.4"/>
  <path d="M124 20 L112 20 L124 32 Z" fill="#fcd116" opacity="0.4"/>
  <path d="M20 124 L32 124 L20 112 Z" fill="#fcd116" opacity="0.4"/>
  <path d="M124 124 L112 124 L124 112 Z" fill="#fcd116" opacity="0.4"/>
  
  <!-- Security chip representation -->
  <rect x="96" y="92" width="16" height="10" rx="3" fill="#fcd116" stroke="#002b7f" stroke-width="1.5"/>
  <rect x="98" y="94" width="3" height="6" fill="#002b7f"/>
  <rect x="102" y="94" width="3" height="6" fill="#002b7f"/>
  <rect x="106" y="94" width="3" height="6" fill="#002b7f"/>
  <rect x="110" y="94" width="1" height="6" fill="#002b7f" opacity="0.5"/>
  
  <!-- Holographic elements -->
  <path d="M70 30 Q72 26 74 30" stroke="#fcd116" stroke-width="2" fill="none" opacity="0.6"/>
  <path d="M114 70 Q118 72 114 74" stroke="#fcd116" stroke-width="2" fill="none" opacity="0.6"/>
  <path d="M30 114 Q26 112 30 110" stroke="#fcd116" stroke-width="2" fill="none" opacity="0.6"/>
  
  <!-- Data matrix pattern -->
  <g opacity="0.3">
    <rect x="22" y="22" width="2" height="2" fill="#fcd116"/>
    <rect x="26" y="22" width="2" height="2" fill="#fcd116"/>
    <rect x="22" y="26" width="2" height="2" fill="#fcd116"/>
    <rect x="120" y="22" width="2" height="2" fill="#fcd116"/>
    <rect x="116" y="22" width="2" height="2" fill="#fcd116"/>
    <rect x="120" y="26" width="2" height="2" fill="#fcd116"/>
    <rect x="22" y="120" width="2" height="2" fill="#fcd116"/>
    <rect x="26" y="120" width="2" height="2" fill="#fcd116"/>
    <rect x="22" y="116" width="2" height="2" fill="#fcd116"/>
  </g>
</svg>